<?xml version="1.0" standalone="no"?>
<!DOCTYPE svg PUBLIC "-//W3C//DTD SVG 20010904//EN"
 "http://www.w3.org/TR/2001/REC-SVG-20010904/DTD/svg10.dtd">
<svg version="1.0" xmlns="http://www.w3.org/2000/svg"
 width="109.000000pt" height="34.000000pt" viewBox="0 0 109.000000 34.000000"
 preserveAspectRatio="xMidYMid meet">

<g transform="translate(0.000000,34.000000) scale(0.100000,-0.100000)"
fill="#000000" stroke="none">
<path d="M109 274 c-34 -39 -49 -82 -39 -109 5 -14 17 -28 26 -32 9 -3 14 -13
11 -24 -7 -25 10 -35 18 -10 3 10 14 26 25 36 26 24 26 76 1 99 -11 10 -21 27
-23 38 -3 20 -3 20 -19 2z"/>
<path d="M262 195 c0 -16 2 -22 5 -12 2 9 2 23 0 30 -3 6 -5 -1 -5 -18z"/>
<path d="M340 211 c0 -10 19 -25 25 -20 1 2 -3 10 -11 17 -8 7 -14 8 -14 3z"/>
<path d="M520 208 c0 -11 8 -18 20 -18 11 0 20 5 20 11 0 5 -5 7 -11 3 -6 -3
-15 0 -20 7 -7 11 -9 10 -9 -3z"/>
<path d="M610 215 c0 -5 9 -21 20 -35 11 -14 20 -20 20 -15 0 6 -9 21 -20 35
-11 14 -20 21 -20 15z"/>
<path d="M730 203 c0 -17 4 -20 22 -15 16 4 18 7 8 10 -8 3 -18 10 -22 16 -5
6 -8 2 -8 -11z"/>
<path d="M791 193 c0 -25 1 -26 9 -8 12 27 12 35 0 35 -5 0 -10 -12 -9 -27z"/>
<path d="M400 198 c0 -4 9 -8 20 -8 11 0 20 4 20 8 0 4 -9 8 -20 8 -11 0 -20
-4 -20 -8z"/>
<path d="M491 188 c0 -14 -7 -29 -13 -31 -10 -4 -10 -6 0 -6 16 -1 25 22 19
46 -3 12 -5 9 -6 -9z"/>
<path d="M831 202 c0 -7 -5 -10 -11 -7 -12 8 -13 -5 0 -25 12 -20 23 -7 17 22
-2 12 -5 17 -6 10z"/>
<path d="M887 184 c3 -9 0 -20 -8 -25 -11 -7 -11 -9 4 -9 12 0 17 8 17 25 0
14 -4 25 -10 25 -5 0 -7 -7 -3 -16z"/>
<path d="M918 193 c6 -2 18 -2 25 0 6 3 1 5 -13 5 -14 0 -19 -2 -12 -5z"/>
<path d="M688 153 c7 -3 16 -2 19 1 4 3 -2 6 -13 5 -11 0 -14 -3 -6 -6z"/>
</g>
</svg>
